<svg xmlns="http://www.w3.org/2000/svg" viewBox="0 0 100 100">
  <circle cx="50" cy="50" r="50" fill="#6CC5C0"/>
  <clipPath id="circle-clip">
    <circle cx="50" cy="50" r="50"/>
  </clipPath>
  <g clip-path="url(#circle-clip)">
    <!-- Flat shadow -->
    <path d="M52 22c-7.5 0-13.5 2.5-17 7-3.5 4.5-4 10-3 16 1 6 3 11 4.5 17 1.5 6 2.5 12 3.5 18 0.8 5 2 8 4 10 1.5 1.5 3.5 2 5.5 0.5 2-1.5 2.5-5 3-10 0.5-4 1-6 2-6s1.5 2 2 6c0.5 5 1 8.5 3 10 2 1.5 4 1 5.5-0.5 2-2 3.2-5 4-10 1-6 2-12 3.5-18 1.5-6 3.5-11 4.5-17 1-6 0.5-11.5-3-16-3.5-4.5-9.5-7-17-7z" fill="#4DA8A4" transform="translate(6,6)"/>
    <!-- White tooth -->
    <path d="M50 22c-7.5 0-13.5 2.5-17 7-3.5 4.5-4 10-3 16 1 6 3 11 4.5 17 1.5 6 2.5 12 3.5 18 0.8 5 2 8 4 10 1.5 1.5 3.5 2 5.5 0.5 2-1.5 2.5-5 3-10 0.5-4 1-6 2-6s1.5 2 2 6c0.5 5 1 8.5 3 10 2 1.5 4 1 5.5-0.5 2-2 3.2-5 4-10 1-6 2-12 3.5-18 1.5-6 3.5-11 4.5-17 1-6 0.5-11.5-3-16-3.5-4.5-9.5-7-17-7z" fill="#FFFFFF"/>
  </g>
</svg>
